# xmcd CD database file
#
# Track frame offsets:
#	183
#	11855
#	25480
#	37923
#	49318
#	60370
#	72703
#	85718
#	99505
#	113175
#	129043
#	141175
#	155828
#	171590
#	184440
#	198340
#	211795
#	220838
#	233718
#	248298
#
# Disc length: 3462 seconds
#
# Revision: 0
# Processed by: cddbd v1.5.1PL2 Copyright (c) Steve Scherf et al.
# Submitted via: CDex 1.50beta9
#
DISCID=1b0d8414
DTITLE=Lecuona Cuban Boys - Volume Two
DYEAR=1991
DGENRE=Salsa
TTITLE0=Cuba
TTITLE1=Carnaval En El Uruguay
TTITLE2=La Chaparrita
TTITLE3=Mambo De Jaruco
TTITLE4=El Pinero
TTITLE5=Petrol
TTITLE6=Rumbas En Colores
TTITLE7=Coctel De Congas
TTITLE8=Jose Dolores
TTITLE9=Colibri
TTITLE10=Bimbasoro
TTITLE11=Tendre Bolero
TTITLE12=Patica Y Mondonguto
TTITLE13=Camina Pa'lante
TTITLE14=Danza Del Fuego
TTITLE15=Canto Caribe
TTITLE16=Costa Rica
TTITLE17=Conga De La Martinica
TTITLE18=Tumbao
TTITLE19=Mi Ultima Conga
EXTD=YEAR: 1991
EXTT0=
EXTT1=
EXTT2=
EXTT3=
EXTT4=
EXTT5=
EXTT6=
EXTT7=
EXTT8=
EXTT9=
EXTT10=
EXTT11=
EXTT12=
EXTT13=
EXTT14=
EXTT15=
EXTT16=
EXTT17=
EXTT18=
EXTT19=
PLAYORDER=
